HIERARCHY
ROOT mixamorig:Hips
{
	OFFSET 0.000000 104.274902 0.000000
	CHANNELS 6 Xposition Yposition Zposition Xrotation Yrotation Zrotation
	JOINT mixamorig:Spine
	{
		OFFSET 0.000000 10.181549 0.131524
		CHANNELS 6 Xposition Yposition Zposition Xrotation Yrotation Zrotation
		JOINT mixamorig:Spine1
		{
			OFFSET 0.000000 9.893990 -1.470706
			CHANNELS 3 Xrotation Yrotation Zrotation
			JOINT mixamorig:Spine2
			{
				OFFSET 0.000000 9.220787 -1.370636
				CHANNELS 3 Xrotation Yrotation Zrotation
				JOINT mixamorig:Neck
				{
					OFFSET 0.000000 16.740372 -2.049023
					CHANNELS 6 Xposition Yposition Zposition Xrotation Yrotation Zrotation
					JOINT mixamorig:Head
					{
						OFFSET 0.000000 9.617859 1.684975
						CHANNELS 6 Xposition Yposition Zposition Xrotation Yrotation Zrotation
						JOINT mixamorig:HeadTop_End
						{
							OFFSET 0.000000 22.037369 7.501070
							CHANNELS 6 Xposition Yposition Zposition Xrotation Yrotation Zrotation
							End Site
							{
								OFFSET 0.000000 23.106567 -2.828246
							}
						}
					}
				}
				JOINT mixamorig:RightShoulder
				{
					OFFSET -4.570000 11.014862 -2.160841
					CHANNELS 6 Xposition Yposition Zposition Xrotation Yrotation Zrotation
					JOINT mixamorig:RightArm
					{
						OFFSET -10.592869 -0.524796 -2.232105
						CHANNELS 3 Xrotation Yrotation Zrotation
						JOINT mixamorig:RightForeArm
						{
							OFFSET -27.841499 0.000000 0.000000
							CHANNELS 3 Xrotation Yrotation Zrotation
							JOINT mixamorig:RightHand
							{
								OFFSET -28.328800 0.000000 0.000000
								CHANNELS 3 Xrotation Yrotation Zrotation
								JOINT mixamorig:RightHandThumb1
								{
									OFFSET -2.464798 -1.573990 2.681910
									CHANNELS 6 Xposition Yposition Zposition Xrotation Yrotation Zrotation
									JOINT mixamorig:RightHandThumb2
									{
										OFFSET -3.244789 -1.873367 1.873378
										CHANNELS 3 Xrotation Yrotation Zrotation
										JOINT mixamorig:RightHandThumb3
										{
											OFFSET -2.646255 -1.527817 1.527816
											CHANNELS 3 Xrotation Yrotation Zrotation
											JOINT mixamorig:RightHandThumb4
											{
												OFFSET -1.994583 -1.151581 1.151575
												CHANNELS 3 Xrotation Yrotation Zrotation
												End Site
												{
													OFFSET -1.860176 -1.142715 1.365483
												}
											}
										}
									}
								}
								JOINT mixamorig:RightHandIndex1
								{
									OFFSET -9.108299 -0.517883 2.259803
									CHANNELS 6 Xposition Yposition Zposition Xrotation Yrotation Zrotation
									JOINT mixamorig:RightHandIndex2
									{
										OFFSET -3.700005 0.000000 0.000000
										CHANNELS 3 Xrotation Yrotation Zrotation
										JOINT mixamorig:RightHandIndex3
										{
											OFFSET -2.849998 0.000000 0.000000
											CHANNELS 3 Xrotation Yrotation Zrotation
											JOINT mixamorig:RightHandIndex4
											{
												OFFSET -2.772202 0.000000 0.000000
												CHANNELS 3 Xrotation Yrotation Zrotation
												End Site
												{
													OFFSET -2.772202 0.000000 -0.000484
												}
											}
										}
									}
								}
								JOINT mixamorig:RightHandMiddle1
								{
									OFFSET -9.532501 0.000000 0.000000
									CHANNELS 6 Xposition Yposition Zposition Xrotation Yrotation Zrotation
									JOINT mixamorig:RightHandMiddle2
									{
										OFFSET -3.699997 0.000000 0.000000
										CHANNELS 3 Xrotation Yrotation Zrotation
										JOINT mixamorig:RightHandMiddle3
										{
											OFFSET -2.950005 0.000000 0.000000
											CHANNELS 3 Xrotation Yrotation Zrotation
											JOINT mixamorig:RightHandMiddle4
											{
												OFFSET -2.946602 0.000000 0.000000
												CHANNELS 3 Xrotation Yrotation Zrotation
												End Site
												{
													OFFSET -2.946594 0.000000 -0.000982
												}
											}
										}
									}
								}
								JOINT mixamorig:RightHandRing1
								{
									OFFSET -9.103600 -0.043106 -1.865100
									CHANNELS 6 Xposition Yposition Zposition Xrotation Yrotation Zrotation
									JOINT mixamorig:RightHandRing2
									{
										OFFSET -3.379303 0.000000 0.000000
										CHANNELS 3 Xrotation Yrotation Zrotation
										JOINT mixamorig:RightHandRing3
										{
											OFFSET -2.889702 0.000000 0.000000
											CHANNELS 3 Xrotation Yrotation Zrotation
											JOINT mixamorig:RightHandRing4
											{
												OFFSET -2.638794 0.000000 0.000000
												CHANNELS 3 Xrotation Yrotation Zrotation
												End Site
												{
													OFFSET -2.638794 0.000000 0.004219
												}
											}
										}
									}
								}
								JOINT mixamorig:RightHandPinky1
								{
									OFFSET -8.076698 -0.486725 -3.806297
									CHANNELS 6 Xposition Yposition Zposition Xrotation Yrotation Zrotation
									JOINT mixamorig:RightHandPinky2
									{
										OFFSET -3.600006 0.000000 0.000000
										CHANNELS 3 Xrotation Yrotation Zrotation
										JOINT mixamorig:RightHandPinky3
										{
											OFFSET -2.099998 0.000000 0.000000
											CHANNELS 3 Xrotation Yrotation Zrotation
											JOINT mixamorig:RightHandPinky4
											{
												OFFSET -2.115799 0.000000 0.000000
												CHANNELS 3 Xrotation Yrotation Zrotation
												End Site
												{
													OFFSET -2.115799 0.000000 0.000174
												}
											}
										}
									}
								}
							}
						}
					}
				}
				JOINT mixamorig:LeftShoulder
				{
					OFFSET 4.570400 11.014664 -2.160817
					CHANNELS 6 Xposition Yposition Zposition Xrotation Yrotation Zrotation
					JOINT mixamorig:LeftArm
					{
						OFFSET 10.592365 -0.524597 -2.232113
						CHANNELS 3 Xrotation Yrotation Zrotation
						JOINT mixamorig:LeftForeArm
						{
							OFFSET 27.841499 0.000000 0.000000
							CHANNELS 3 Xrotation Yrotation Zrotation
							JOINT mixamorig:LeftHand
							{
								OFFSET 28.328804 0.000000 0.000000
								CHANNELS 3 Xrotation Yrotation Zrotation
								JOINT mixamorig:LeftHandThumb1
								{
									OFFSET 2.466095 -1.576202 2.681697
									CHANNELS 6 Xposition Yposition Zposition Xrotation Yrotation Zrotation
									JOINT mixamorig:LeftHandThumb2
									{
										OFFSET 3.243317 -1.872528 1.872528
										CHANNELS 3 Xrotation Yrotation Zrotation
										JOINT mixamorig:LeftHandThumb3
										{
											OFFSET 2.647881 -1.528763 1.528755
											CHANNELS 3 Xrotation Yrotation Zrotation
											JOINT mixamorig:LeftHandThumb4
											{
												OFFSET 1.998924 -1.154068 1.154079
												CHANNELS 3 Xrotation Yrotation Zrotation
												End Site
												{
													OFFSET 1.884041 -1.149155 1.337651
												}
											}
										}
									}
								}
								JOINT mixamorig:LeftHandIndex1
								{
									OFFSET 9.109299 -0.518005 2.259899
									CHANNELS 6 Xposition Yposition Zposition Xrotation Yrotation Zrotation
									JOINT mixamorig:LeftHandIndex2
									{
										OFFSET 3.699997 0.000000 0.000000
										CHANNELS 3 Xrotation Yrotation Zrotation
										JOINT mixamorig:LeftHandIndex3
										{
											OFFSET 2.849998 0.000000 0.000000
											CHANNELS 3 Xrotation Yrotation Zrotation
											JOINT mixamorig:LeftHandIndex4
											{
												OFFSET 2.774902 0.000000 0.000000
												CHANNELS 3 Xrotation Yrotation Zrotation
												End Site
												{
													OFFSET 2.774902 0.000000 -0.000072
												}
											}
										}
									}
								}
								JOINT mixamorig:LeftHandMiddle1
								{
									OFFSET 9.533394 0.000000 0.000000
									CHANNELS 6 Xposition Yposition Zposition Xrotation Yrotation Zrotation
									JOINT mixamorig:LeftHandMiddle2
									{
										OFFSET 3.700005 0.000000 0.000000
										CHANNELS 3 Xrotation Yrotation Zrotation
										JOINT mixamorig:LeftHandMiddle3
										{
											OFFSET 2.949997 0.000000 0.000000
											CHANNELS 3 Xrotation Yrotation Zrotation
											JOINT mixamorig:LeftHandMiddle4
											{
												OFFSET 2.952904 0.000000 0.000000
												CHANNELS 3 Xrotation Yrotation Zrotation
												End Site
												{
													OFFSET 2.952896 0.000000 0.000165
												}
											}
										}
									}
								}
								JOINT mixamorig:LeftHandRing1
								{
									OFFSET 9.104500 -0.042999 -1.865100
									CHANNELS 6 Xposition Yposition Zposition Xrotation Yrotation Zrotation
									JOINT mixamorig:LeftHandRing2
									{
										OFFSET 3.149994 0.000000 0.000000
										CHANNELS 3 Xrotation Yrotation Zrotation
										JOINT mixamorig:LeftHandRing3
										{
											OFFSET 2.950005 0.000000 0.000000
											CHANNELS 3 Xrotation Yrotation Zrotation
											JOINT mixamorig:LeftHandRing4
											{
												OFFSET 2.644295 0.000000 0.000000
												CHANNELS 3 Xrotation Yrotation Zrotation
												End Site
												{
													OFFSET 2.644302 0.000000 0.000083
												}
											}
										}
									}
								}
								JOINT mixamorig:LeftHandPinky1
								{
									OFFSET 8.077797 -0.486893 -3.806301
									CHANNELS 6 Xposition Yposition Zposition Xrotation Yrotation Zrotation
									JOINT mixamorig:LeftHandPinky2
									{
										OFFSET 3.599998 0.000000 0.000000
										CHANNELS 3 Xrotation Yrotation Zrotation
										JOINT mixamorig:LeftHandPinky3
										{
											OFFSET 2.099998 0.000000 0.000000
											CHANNELS 3 Xrotation Yrotation Zrotation
											JOINT mixamorig:LeftHandPinky4
											{
												OFFSET 2.125504 0.000000 0.000000
												CHANNELS 3 Xrotation Yrotation Zrotation
												End Site
												{
													OFFSET 2.125504 0.000000 -0.001254
												}
											}
										}
									}
								}
							}
						}
					}
				}
			}
		}
	}
	JOINT mixamorig:RightUpLeg
	{
		OFFSET -8.207800 -6.751701 -1.599544
		CHANNELS 6 Xposition Yposition Zposition Xrotation Yrotation Zrotation
		JOINT mixamorig:RightLeg
		{
			OFFSET 0.000000 -44.370155 0.345934
			CHANNELS 3 Xrotation Yrotation Zrotation
			JOINT mixamorig:RightFoot
			{
				OFFSET 0.000000 -44.423664 -3.043536
				CHANNELS 3 Xrotation Yrotation Zrotation
				JOINT mixamorig:RightToeBase
				{
					OFFSET 0.000000 -8.728685 10.710592
					CHANNELS 3 Xrotation Yrotation Zrotation
					JOINT mixamorig:RightToe_End
					{
						OFFSET 0.000000 -0.000664 9.278099
						CHANNELS 3 Xrotation Yrotation Zrotation
						End Site
						{
							OFFSET 0.000000 -0.000664 9.278101
						}
					}
				}
			}
		}
	}
	JOINT mixamorig:LeftUpLeg
	{
		OFFSET 8.207800 -6.751701 -1.599544
		CHANNELS 6 Xposition Yposition Zposition Xrotation Yrotation Zrotation
		JOINT mixamorig:LeftLeg
		{
			OFFSET 0.000000 -44.370049 0.346940
			CHANNELS 3 Xrotation Yrotation Zrotation
			JOINT mixamorig:LeftFoot
			{
				OFFSET 0.000000 -44.423603 -3.044389
				CHANNELS 3 Xrotation Yrotation Zrotation
				JOINT mixamorig:LeftToeBase
				{
					OFFSET 0.000000 -8.728686 10.710592
					CHANNELS 3 Xrotation Yrotation Zrotation
					JOINT mixamorig:LeftToe_End
					{
						OFFSET 0.000000 -0.000680 9.278100
						CHANNELS 3 Xrotation Yrotation Zrotation
						End Site
						{
							OFFSET 0.000000 -0.000680 9.278100
						}
					}
				}
			}
		}
	}
}
MOTION
Frames: 4
Frame Time: 0.033333
0.478526 101.631035 1.555279 -0.893323 1.577710 -5.358921 0.000000 10.181554 0.131524 1.298035 -1.197520 3.016607 0.728742 0.264196 5.944685 0.710787 0.781493 5.851998 -0.000001 16.740364 -2.049020 1.045308 -0.304693 -2.163987 -0.000002 9.617852 1.684975 1.584931 0.544179 -8.140494 0.000000 22.037354 7.501071 0.000000 0.000000 -0.000000 -4.569999 11.014860 -2.160838 4.508132 3.324374 5.471588 -1.219686 0.655853 67.345419 -0.000016 17.736782 0.000009 -11.193102 -9.123278 10.139271 -2.464821 -1.573993 2.681911 18.491284 0.461456 -10.916082 1.284048 -32.757604 3.088960 2.008727 -8.430475 1.114699 -0.000003 0.000002 -0.000001 -9.108314 -0.517872 2.259801 0.339563 -4.671352 7.844284 0.387042 -2.823574 20.566244 -0.193132 -0.216341 13.843921 -0.000000 0.000000 0.000001 -9.532516 0.000029 -0.000000 0.912578 -8.769259 15.831740 0.919087 -3.991129 33.400421 0.216473 -1.688826 15.898044 -0.000000 -0.000000 0.000002 -9.103606 -0.043111 -1.865100 2.555824 -11.673026 26.909197 1.710654 -3.886766 40.215478 -0.157960 0.035273 17.815341 -0.000001 0.000000 -0.000000 -8.076704 -0.486735 -3.806300 5.576076 -16.029161 36.940638 1.378688 -4.077637 45.645628 -0.727742 -0.247543 22.122727 -0.000001 -0.000001 0.000000 4.570399 11.014677 -2.160815 3.582357 -13.764045 -5.044474 4.032787 3.514259 -83.678341 0.000001 -14.506751 0.000011 -27.592620 3.698770 -9.416211 2.466095 -1.576224 2.681689 18.491371 -0.461339 10.916041 1.284021 32.757598 -3.089003 2.117139 9.311169 -0.358623 -0.000002 0.000001 0.000003 9.109312 -0.518015 2.259900 0.339556 4.671361 -7.844267 0.387012 2.823615 -20.566220 0.034612 0.816849 -10.169813 -0.000001 -0.000002 0.000002 9.533411 0.000004 0.000001 0.912557 8.769286 -15.831721 0.919037 3.991190 -33.400407 0.170564 1.488908 -12.264414 0.000000 -0.000001 0.000002 9.104510 -0.043007 -1.865098 2.555785 11.673075 -26.909187 1.710622 3.886849 -40.215467 0.544833 1.835104 -19.344146 0.000001 -0.000001 0.000000 8.077815 -0.486897 -3.806300 5.576031 16.029235 -36.940603 1.378650 4.077728 -45.645615 0.486565 2.853415 -20.524724 0.000003 0.000000 0.000002 -8.207799 -6.751710 -1.599544 -1.602718 -4.966563 10.553961 12.443634 -5.083600 3.268284 -9.844261 1.009916 -7.756678 -0.548655 -0.000000 0.000003 0.000000 0.000001 -0.000000 8.207797 -6.751705 -1.599545 -19.550766 10.796476 15.932622 22.035649 9.531401 2.338585 -1.471905 3.333069 -8.784889 -0.441968 -0.000000 -0.000002 0.000000 -0.000000 0.000000 
0.791721 101.684296 1.351384 -1.180787 1.441220 -5.229413 0.000000 10.181547 0.131523 1.453939 -1.332585 2.944018 0.794516 0.235284 5.931271 0.776544 0.751724 5.839184 0.000001 16.740358 -2.049022 0.889981 -0.340857 -2.138192 0.000001 9.617837 1.684978 1.133667 0.404116 -8.224244 0.000000 22.037354 7.501070 0.000000 -0.000000 0.000000 -4.569996 11.014853 -2.160842 4.394129 4.082671 7.029170 -0.234323 3.590072 65.261187 -0.000015 17.586320 0.000021 -10.940848 -7.427803 11.282270 -2.464810 -1.573979 2.681909 18.491291 0.461461 -10.916092 1.284055 -32.757615 3.088959 2.008720 -8.430472 1.114723 -0.000003 -0.000001 0.000000 -9.108306 -0.517857 2.259803 0.339568 -4.671352 7.844262 0.387032 -2.823573 20.566241 -0.193125 -0.216345 13.843944 -0.000000 0.000000 0.000006 -9.532519 0.000011 0.000000 0.912584 -8.769260 15.831730 0.919073 -3.991125 33.400431 0.216477 -1.688834 15.898063 -0.000000 -0.000000 0.000003 -9.103603 -0.043097 -1.865102 2.555812 -11.673024 26.909188 1.710659 -3.886774 40.215464 -0.157951 0.035276 17.815340 0.000000 0.000001 -0.000000 -8.076704 -0.486720 -3.806299 5.576073 -16.029161 36.940631 1.378695 -4.077638 45.645628 -0.727745 -0.247544 22.122728 0.000001 0.000000 0.000004 4.570401 11.014656 -2.160818 3.386911 -14.541428 -6.059131 5.039690 0.192575 -80.959851 -0.000001 -17.010832 -0.000009 -26.372330 0.413004 -9.810128 2.466099 -1.576214 2.681686 18.491375 -0.461335 10.916047 1.284026 32.757598 -3.088996 2.117155 9.311162 -0.358636 0.000001 0.000003 0.000003 9.109297 -0.518016 2.259900 0.350680 4.748032 -8.609329 0.413866 2.893733 -21.310537 0.044505 0.883681 -10.835813 0.000000 -0.000000 -0.000002 9.533403 0.000001 0.000000 0.964483 8.861589 -16.601565 0.961854 4.057730 -34.193816 0.186949 1.553405 -12.930713 0.000001 0.000000 -0.000000 9.104501 -0.042987 -1.865100 2.622552 11.680480 -27.687125 1.769328 3.942955 -41.030125 0.576452 1.901993 -20.090120 0.000000 -0.000000 -0.000000 8.077816 -0.486899 -3.806300 5.624135 16.089837 -37.712890 1.434296 4.141143 -46.485752 0.517806 2.921722 -21.271473 -0.000001 -0.000000 0.000001 -8.207797 -6.751708 -1.599544 -1.602193 -4.892543 10.194200 12.708532 -4.873888 3.283588 -9.826839 0.858366 -7.592256 -0.592865 -0.000004 -0.000002 -0.000000 -0.000000 -0.000000 8.207800 -6.751699 -1.599541 -19.164254 10.805556 15.500553 21.864689 9.851452 2.465347 -1.398549 3.327059 -8.645144 -0.460951 -0.000005 -0.000002 -0.000000 -0.000000 0.000000 
1.160212 101.729591 1.106472 -1.513475 1.405536 -5.103138 -0.000000 10.181556 0.131524 1.712750 -1.371754 2.891937 0.902437 0.230198 5.918853 0.884559 0.745467 5.827212 -0.000002 16.740358 -2.049022 0.653533 -0.407667 -2.110207 0.000001 9.617853 1.684981 0.510713 0.131738 -8.258002 0.000000 22.037354 7.501074 0.000000 -0.000000 0.000000 -4.570001 11.014870 -2.160843 4.302027 4.983968 8.173004 2.191098 9.164545 61.835485 0.000002 18.303049 -0.000027 -12.081289 -7.417357 15.925737 -2.464803 -1.573991 2.681903 18.491286 0.461463 -10.916072 1.284043 -32.757618 3.088931 2.008704 -8.430478 1.114709 -0.000001 0.000004 0.000002 -9.108295 -0.517882 2.259801 0.339552 -4.671349 7.844280 0.387039 -2.823583 20.566193 -0.193120 -0.216338 13.843931 0.000000 0.000000 0.000007 -9.532489 0.000014 -0.000002 0.912575 -8.769256 15.831736 0.919076 -3.991126 33.400428 0.216475 -1.688823 15.898052 0.000000 -0.000000 -0.000001 -9.103592 -0.043089 -1.865103 2.555820 -11.673021 26.909190 1.710649 -3.886767 40.215478 -0.157966 0.035283 17.815334 -0.000001 -0.000002 -0.000000 -8.076695 -0.486714 -3.806303 5.576067 -16.029166 36.940631 1.378694 -4.077622 45.645628 -0.727747 -0.247556 22.122739 -0.000000 -0.000000 0.000002 4.570397 11.014637 -2.160820 3.187924 -15.568364 -6.781325 5.632255 -3.901324 -78.280177 -0.000009 -20.863441 -0.000007 -26.510336 -2.635436 -11.372688 2.466088 -1.576210 2.681689 18.491368 -0.461342 10.916051 1.284018 32.757621 -3.088997 2.117149 9.311157 -0.358614 0.000001 0.000001 0.000003 9.109301 -0.518013 2.259898 0.386703 4.959036 -10.723695 0.492893 3.085779 -23.369525 0.076013 1.068619 -12.685517 -0.000000 0.000000 0.000001 9.533396 0.000002 -0.000001 1.114966 9.108827 -18.730470 1.084767 4.238216 -36.384148 0.236446 1.731534 -14.781436 0.000000 -0.000000 -0.000002 9.104482 -0.042998 -1.865098 2.805245 11.698624 -29.836022 1.935365 4.093297 -43.277369 0.668390 2.084734 -22.153398 -0.000000 0.000001 0.000001 8.077804 -0.486899 -3.806303 5.761479 16.254037 -39.848809 1.592339 4.311545 -48.800728 0.608813 3.108420 -23.336991 -0.000001 -0.000000 0.000001 -8.207801 -6.751700 -1.599543 -1.637843 -4.847603 9.809939 13.095672 -4.718071 3.288094 -9.853304 0.681371 -7.381616 -0.642029 0.000003 -0.000000 0.000000 0.000000 0.000000 8.207802 -6.751696 -1.599544 -18.786244 10.766180 14.984241 21.739541 10.036269 2.661592 -1.332403 3.423522 -8.486088 -0.448573 0.000002 0.000001 0.000000 -0.000000 0.000000 
1.593889 101.769363 0.811566 -1.895486 1.490957 -4.990435 -0.000001 10.181564 0.131524 2.075006 -1.313577 2.867261 1.048780 0.249233 5.911328 1.031058 0.763100 5.820029 0.000000 16.740368 -2.049020 0.352883 -0.501951 -2.078690 0.000001 9.617843 1.684977 -0.271363 -0.261223 -8.221279 0.000000 22.037338 7.501073 -0.000000 0.000000 -0.000000 -4.569998 11.014838 -2.160840 4.186661 6.000955 9.095253 5.431886 15.108781 57.182484 0.000004 19.321482 0.000029 -12.810862 -9.698989 22.963554 -2.464819 -1.573984 2.681906 18.491293 0.461458 -10.916090 1.284032 -32.757625 3.088944 2.008735 -8.430472 1.114710 -0.000004 -0.000001 -0.000001 -9.108315 -0.517882 2.259803 0.339546 -4.671350 7.844269 0.387045 -2.823575 20.566219 -0.193125 -0.216338 13.843932 0.000001 0.000001 -0.000003 -9.532519 0.000029 0.000001 0.912571 -8.769259 15.831730 0.919076 -3.991131 33.400414 0.216476 -1.688832 15.898061 0.000001 -0.000004 -0.000000 -9.103607 -0.043113 -1.865098 2.555809 -11.673020 26.909199 1.710660 -3.886777 40.215454 -0.157956 0.035276 17.815341 0.000001 0.000002 -0.000001 -8.076715 -0.486718 -3.806298 5.576062 -16.029163 36.940617 1.378702 -4.077633 45.645632 -0.727752 -0.247558 22.122732 0.000000 0.000002 0.000001 4.570399 11.014647 -2.160817 2.950352 -16.883837 -7.437688 5.746319 -7.625263 -75.153418 -0.000008 -25.527600 0.000013 -27.504560 -3.531891 -14.084786 2.466081 -1.576198 2.681689 18.491378 -0.461327 10.916054 1.284015 32.757621 -3.088996 2.117149 9.311158 -0.358630 0.000003 0.000004 -0.000002 9.109294 -0.518011 2.259902 0.455868 5.274645 -13.916744 0.625350 3.370344 -26.482633 0.135281 1.347436 -15.496705 -0.000000 0.000001 0.000002 9.533392 -0.000001 0.000003 1.360989 9.461259 -21.948820 1.282893 4.501052 -39.687070 0.322608 1.998916 -17.594374 0.000001 0.000000 0.000000 9.104497 -0.043000 -1.865098 3.074492 11.716595 -33.078049 2.196224 4.307125 -46.662524 0.819691 2.354308 -25.272354 -0.000000 0.000002 0.000002 8.077787 -0.486893 -3.806296 5.980921 16.492346 -43.077815 1.842712 4.555395 -52.282844 0.758995 3.384030 -26.459579 0.000000 -0.000000 -0.000000 -8.207801 -6.751716 -1.599543 -1.693459 -4.810201 9.412013 13.566832 -4.657830 3.281569 -9.899617 0.481218 -7.115914 -0.710157 -0.000003 0.000000 0.000000 -0.000000 -0.000000 8.207799 -6.751693 -1.599544 -18.428646 10.707299 14.407442 21.659310 10.054137 2.904703 -1.272226 3.598192 -8.280371 -0.424131 -0.000002 0.000001 0.000000 -0.000002 0.000000 
